<svg style="background:#ffffff" viewBox="0 0 320 210.0" xmlns="http://www.w3.org/2000/svg">
<polygon points="50.0,100.0 53.0,106.75 56.0,108.496 59.0,108.496 62.0,110.125 65.0,110.125 68.0,111.52 71.0,111.52 74.0,112.6 77.0,112.6 80.0,113.266 83.0,113.266 86.0,113.5 89.0,113.5 92.0,113.266 95.0,113.266 98.0,112.6 101.0,112.6 104.0,111.52 107.0,111.52 110.0,110.125 113.0,110.125 116.0,108.496 119.0,108.496 122.0,106.75 125.0,106.75 128.0,105.004 131.0,105.004 134.0,103.375 137.0,103.375 140.0,101.98 143.0,101.98 146.0,100.9 149.0,100.9 152.0,100.234 155.0,100.234 158.0,100.0 161.0,100.0 164.0,100.234 167.0,100.234 170.0,100.9 173.0,100.9 176.0,101.98 179.0,101.98 182.0,103.375 185.0,103.375 188.0,105.004 191.0,105.004 194.0,106.75 197.0,100.0" opacity="0.6" fill="#FF1800" stroke="black" stroke-width="0"/>
<polygon points="50.0,100.0 53.0,86.5 56.0,83.008 59.0,83.008 62.0,79.75 65.0,79.75 68.0,76.951 71.0,76.951 74.0,74.809 77.0,74.809 80.0,73.459 83.0,73.459 86.0,73.0 89.0,73.0 92.0,73.459 95.0,73.459 98.0,74.809 101.0,74.809 104.0,76.951 107.0,76.951 110.0,79.75 113.0,79.75 116.0,83.008 119.0,83.008 122.0,86.5 125.0,86.5 128.0,89.992 131.0,89.992 134.0,93.25 137.0,93.25 140.0,96.049 143.0,96.049 146.0,98.191 149.0,98.191 152.0,99.541 155.0,99.541 158.0,100.0 161.0,100.0 164.0,99.541 167.0,99.541 170.0,98.191 173.0,98.191 176.0,96.049 179.0,96.049 182.0,93.25 185.0,93.25 188.0,89.992 191.0,89.992 194.0,86.5 197.0,100.0" opacity="0.6" fill="#005CFF" stroke="black" stroke-width="0"/>
<line x1="40" y1="127.0" x2="40" y2="73.0" stroke="black" stroke-width="1" />
<line x1="39.5" y1="100.0" x2="43.5" y2="100.0" stroke="black" stroke-width="1" />
<line x1="39.5" y1="73.0" x2="43.5" y2="73.0" stroke="black" stroke-width="1" />
<text text-anchor="end" font-family="Arial" x="36" y="77.0" font-size="8" >30.0</text>
<line x1="39.5" y1="127.0" x2="43.5" y2="127.0" stroke="black" stroke-width="1" />
<text text-anchor="end" font-family="Arial" x="36" y="131.0" font-size="8" >-30.0</text>
<text text-anchor="start" font-family="Arial" x="39.5" y="66.0" font-size="7" >Chr1: 0-250</text>
</svg>
